<?xml version="1.0" encoding="utf-8"?>
<!-- Generator: Adobe Illustrator 21.0.0, SVG Export Plug-In . SVG Version: 6.00 Build 0)  -->
<svg version="1.1" id="Layer_1" xmlns="http://www.w3.org/2000/svg" xmlns:xlink="http://www.w3.org/1999/xlink" x="0px" y="0px"
	 viewBox="0 0 222.6 194.7" style="enable-background:new 0 0 222.6 194.7;" xml:space="preserve">
<style type="text/css">
	.st0{fill:#9E957B;}
	.st1{fill:#FFB1AC;}
	.st2{fill:#79FFAE;}
	.st3{fill:#5BBF83;}
	.st4{fill:#2D2609;}
	.st5{fill:#88BAA6;}
	.st6{fill:#601E14;}
	.st7{fill:#FFFFFF;}
	.st8{fill:#1D1906;}
	.st9{fill:#F3F1EC;}
	.st10{fill:#AE9E9B;}
	.st11{fill:#B37E76;}
	.st12{fill:#CCA9A3;}
	.st13{fill:#865F59;}
	.st14{fill:#867B5A;}
	.st15{fill:#99E5C8;}
	.st16{fill:none;stroke:#FFD0CD;stroke-width:0.5;stroke-miterlimit:10;}
	.st17{fill:#FFD0CD;}
	.st18{fill:#0C75E8;}
	.st19{fill:#99F0FF;}
	.st20{fill:#FF9953;}
	.st21{fill:#EBE678;}
	.st22{fill:#D6F9FF;}
</style>
<g>
	<circle class="st20" cx="114.6" cy="99.2" r="59"/>
	<g>
		<path class="st20" d="M56,29.1L66,70c0,0,10.6-20.2,29.3-24.4L56,29.1z"/>
		<path class="st20" d="M25.1,84.2l34.6,23.9c0,0-5.5-22.1,5.7-37.7L25.1,84.2z"/>
		<path class="st20" d="M36.9,145l42-3.2c0,0-18.1-13.7-19.3-32.9L36.9,145z"/>
		<path class="st20" d="M175.4,30l-11.7,40.4c0,0-9.8-20.6-28.3-25.5L175.4,30z"/>
		<path class="st20" d="M204.8,85.6l-35,23.4c0,0,5.8-22-5.1-37.7L204.8,85.6z"/>
		<path class="st20" d="M192.9,145.3l-42-2.3c0,0,17.9-14.1,18.6-33.3L192.9,145.3z"/>
		<path class="st20" d="M114.2,7.2l-18.1,38c0,0,20.9-8.9,38.1-0.3L114.2,7.2z"/>
		<path class="st20" d="M145.9,186.3l4.4-41.8c0,0-16.8,15.4-35.8,13L145.9,186.3z"/>
		<path class="st20" d="M82.2,184.6l31.9-27.4c0,0-22.8-0.3-35-15.1L82.2,184.6z"/>
	</g>
	<circle class="st21" cx="114.3" cy="96.9" r="46.7"/>
</g>
</svg>
