<?xml version="1.0" encoding="utf-8"?>
<!-- Generator: Adobe Illustrator 21.0.0, SVG Export Plug-In . SVG Version: 6.00 Build 0)  -->
<svg version="1.1" id="Layer_1" xmlns="http://www.w3.org/2000/svg" xmlns:xlink="http://www.w3.org/1999/xlink" x="0px" y="0px"
	 viewBox="0 0 200 60" style="enable-background:new 0 0 200 60;" xml:space="preserve">
<style type="text/css">
	.st0{fill:#79FFAE;}
	.st1{fill:#2D2609;}
	.st2{fill:#00BF76;}
	.st3{fill:#80281A;}
	.st4{fill:#FFFFFF;}
	.st5{fill:#1D1906;}
</style>
<g>
	<path class="st1" d="M155,17.6c0.2-1.1,0.4-1.9,0.4-2.3c0.1-0.6,0.3-1.1,0.6-1.5c0.4-0.3,0.8-0.5,1.4-0.5c0.7,0,1.3,0.2,1.5,0.6
		c0.3,0.4,0.4,1.1,0.4,2.1c0,1.4-0.1,2.6-0.7,3.8c0.4,0-0.1,0-0.1,1c0.1,1.1-0.8,1.1-0.1,0.7c0.4-0.2,0.2-1,0.2-0.6
		c0,1.2-0.2,0.2-0.2,0.7c0,1.1,0.4-2.2,0.2-0.2c-0.1,1,0.1-0.6-0.1,2.2c-0.2,2.9-0.3,5.2-0.3,6.9c0,1,0,1.8,0.1,2.2
		c0.2,0.9,0.5,1.6,0.9,2s1.1,0.6,1.9,0.6c0.4,0,1-0.1,1.9-0.3c0.5-0.1,0.9-0.2,1.2-0.2c0.4,0,0.7,0.1,0.9,0.4
		c0.2,0.3,0.3,0.6,0.3,1.1c0,0.8-0.5,1.5-1.5,2c-1,0.5-2.3,0.8-3.7,0.8c-0.9,0-1.8-0.2-2.6-0.6c-0.9-0.4-1.6-1-2.2-1.6
		c-0.1-0.1-0.3-0.4-0.5-1c-0.2-0.6-0.4-1.2-0.6-1.9c-0.1-0.4-0.1-1.2-0.1-2.6c0-1.3,0.1-3.5,0.3-6.7l0-1 M151.5,20.5"/>
	<path class="st1" d="M15.3,24.2c-0.2,0-0.5,0.1-0.7,0.1c-0.3,0-0.6-0.1-0.9-0.4c-0.3-0.3-0.4-0.6-0.4-0.8c0-0.8,0.4-1.4,1.2-1.8
		c0.8-0.4,1.5-0.6,2.3-0.6c0.7,0,1.4,0.2,2.1,0.7c0.7,0.5,1.3,1,1.6,1.7c0.8-0.9,1.7-1.6,2.8-2c1.1-0.4,2.3-0.6,3.5-0.6
		c1.4,0,2.6,0.4,3.8,1.3c1.2,0.9,2.1,1.9,2.8,3.3c0.7,1.3,1,2.6,1,3.9c0,1.3-0.1,2.4-0.4,3.4c-0.3,1-0.7,2-1.4,3
		c-0.8,1.1-1.8,1.9-3.1,2.6c-1.3,0.7-2.8,1-4.6,1c-0.5,0-1-0.1-1.7-0.4c-0.7-0.2-1.2-0.5-1.7-0.8c-0.2,2-0.3,3.7-0.3,5.2
		c0,0.9,0,1.7,0.1,2.5c0.1,0.9,0.1,1.6,0.1,2c0,0.6-0.2,1.1-0.7,1.4c-0.4,0.3-0.9,0.5-1.5,0.5c-1.1,0-1.8-0.3-2.1-0.9
		c-0.3-0.6-0.5-1.4-0.5-2.5c0.1-2.5,0.3-4.9,0.4-7c0.2-2.7,0.3-6.8,0.3-12.3c0-0.5-0.1-1.1-0.3-1.7c-0.2-0.6-0.5-0.9-1-0.9
		C15.8,24.1,15.6,24.2,15.3,24.2z M23,34.7c0.7,0.4,1.3,0.6,1.9,0.6c1.7,0,2.9-0.5,3.8-1.4c0.6-0.6,1-1.3,1.2-1.9
		c0.2-0.6,0.3-1.6,0.3-3c0-1.1-0.2-2-0.6-2.7c-0.4-0.7-0.9-1.3-1.5-1.6c-0.6-0.3-1.2-0.5-1.7-0.5c-1.2,0-2.2,0.4-2.9,1.1
		c-0.8,0.7-1.2,1.7-1.4,2.9c-0.1,1-0.2,2.7-0.2,5C21.8,33.8,22.3,34.3,23,34.7z"/>
	<path class="st1" d="M54.5,26.3c0.1,0.8,0.2,1.5,0.2,2.1c0,1.2-0.3,2.8-0.8,4.9c-2,3.7-5,5.6-9,5.6c-1.5,0-3-0.5-4.5-1.5
		c-1.5-1-2.6-2.1-3.2-3.4c-0.8-2.5-1.2-4.1-1.2-4.8c0-1.2,0.3-2.4,0.8-3.8c0.5-1.3,1.2-2.5,2-3.5c0.5-0.7,1.4-1.3,2.7-1.7
		s2.5-0.7,3.5-0.7c2.1,0,3.8,0.4,5.3,1.2c1.4,0.8,2.7,2,3.6,3.8C54.1,24.9,54.3,25.5,54.5,26.3z M50.2,28.6c0-0.9-0.2-1.7-0.5-2.5
		c-0.3-0.8-0.8-1.5-1.3-2.1c-0.1-0.1-0.2-0.2-0.5-0.3c-0.3-0.1-0.6-0.3-1.1-0.4c-0.5-0.1-1-0.2-1.6-0.2c-1.7,0-2.9,0.7-3.6,2
		c-0.8,1.3-1.2,2.8-1.2,4.5c0,0.3,0.1,0.9,0.2,1.7c0.2,0.8,0.3,1.3,0.4,1.5c0.1,0.2,0.3,0.5,0.7,0.9c0.4,0.4,0.8,0.7,1.4,1
		c0.5,0.3,1.1,0.4,1.7,0.4c1.3,0,2.4-0.3,3.2-1c0.8-0.6,1.4-1.5,1.9-2.5C50.2,31.2,50.2,30.2,50.2,28.6z"/>
	<path class="st1" d="M77,34.4c0.3,0.6,0.8,0.9,1.3,0.9c0.3,0,0.6,0,0.8-0.1c0.3,0,0.5-0.1,0.8-0.1c0.3,0,0.6,0.1,0.8,0.4
		c0.2,0.3,0.3,0.6,0.3,1c0,0.7-0.3,1.3-1,1.7c-0.7,0.4-1.6,0.6-2.7,0.6c-0.8,0-1.6-0.2-2.4-0.7c-0.8-0.5-1.5-1.3-2-2.3
		c-0.5-1-0.8-2.4-0.8-3.9c0-3.4,0.1-6.2,0.2-8.5c0.1-2.8,0.2-6.3,0.2-10.5c0-1.3,0.1-2.3,0.2-2.8c0.2-0.4,0.5-0.7,0.9-1
		s0.8-0.3,1.3-0.3c0.4,0,0.8,0.1,1.2,0.2c0.3,0.1,0.6,0.4,0.7,0.7c0.1,0.4,0.2,0.7,0.2,1c0,0.3,0.1,0.8,0.1,1.4c0,1.2,0,2.4-0.1,3.5
		c-0.1,1.4-0.1,2.3-0.1,3c-0.2,5.2-0.4,9.6-0.4,13.1C76.5,32.9,76.7,33.8,77,34.4z"/>
	<path class="st1" d="M84.8,24.1c0.8-1.2,1.9-2.3,3.3-3.4c0.4-0.3,1.1-0.6,2.1-0.8c1-0.2,1.8-0.3,2.6-0.3c0.9,0,1.8,0.2,2.8,0.6
		c1,0.4,1.8,0.8,2.4,1.3c1.1,0.8,1.8,1.7,2.3,2.8c0.4,1,0.6,2.3,0.6,3.7c0,0.6-0.3,1.2-1,1.8c-0.7,0.6-1.4,0.9-2.2,0.9l-1.7,0
		c-0.9,0-2.1,0-3.7,0.1l-0.9,0c-0.6,0.1-1.1,0.1-1.5,0.1c-0.5,0-1.1-0.1-1.9-0.2c0.1,1.4,0.6,2.5,1.5,3.3c0.9,0.8,1.9,1.2,3,1.2
		c1.9,0,3.2-0.4,3.9-1.1c0.6-0.4,1-0.7,1.2-0.8c0.2-0.1,0.5-0.2,1-0.2c0.5,0,0.9,0.2,1.2,0.7c0.4,0.4,0.5,0.9,0.5,1.3
		c0,0.5-0.3,1-0.9,1.5c-0.6,0.5-1.4,1.1-2.5,1.6c-0.6,0.2-1.3,0.4-2.3,0.6c-1,0.2-1.8,0.3-2.4,0.3c-1,0-2.2-0.3-3.5-0.9
		c-1.3-0.6-2.2-1.3-2.8-2c-0.6-0.7-1.2-1.8-1.6-3.1c-0.5-1.4-0.7-2.8-0.7-4.2C83.6,26.7,84,25.3,84.8,24.1z M97,27.1
		c-0.1-0.9-0.3-1.6-0.8-2.1c-0.5-0.5-1.1-1-1.9-1.4c-0.3-0.1-0.5-0.2-0.7-0.3c-0.2-0.1-0.4-0.1-0.7-0.1c-1.4,0-2.5,0.4-3.4,1.1
		c-0.9,0.7-1.5,1.7-1.7,2.8c1.5,0.1,3,0.1,4.6,0.1C94.5,27.4,96,27.3,97,27.1z"/>
	<path class="st1" d="M125.9,35.5c0.3,0.1,0.6,0.2,0.7,0.3c0.1,0.1,0.2,0.2,0.2,0.4c0,0.7-0.2,1.3-0.8,1.7c-0.5,0.5-1.2,0.7-1.9,0.7
		c-1.2,0-2.1-0.3-2.7-0.9c-0.6-0.6-1.1-1.6-1.4-2.8c-0.1-0.5-0.2-1.2-0.2-2.1c0-0.5,0-1.3,0.1-2.4c0.1-1.2,0.1-2.1,0.1-2.8
		c0-1-0.3-1.9-0.9-2.7c-0.6-0.8-1.4-1.2-2.4-1.2c-0.6,0-1.3,0.2-1.9,0.6c-0.7,0.4-1.2,0.8-1.4,1.3c-0.4,0.9-0.8,1.8-0.9,2.8
		c-0.3,1.8-0.5,3.6-0.5,5.5c0,0.9,0,1.6,0,2.1c0,0.1,0,0.3,0,0.7c0,0.3,0,0.6-0.1,0.9c-0.1,0.3-0.2,0.5-0.4,0.8
		c-0.1,0.1-0.4,0.3-0.7,0.4c-0.3,0.1-0.6,0.2-0.9,0.2c-0.4,0-0.9-0.2-1.5-0.5c-0.6-0.4-1-0.8-1.1-1.2l0-0.8c0-0.3,0-0.6,0.1-0.9
		c0.4-2.1,0.5-3.9,0.5-5.4c0-0.7,0-1.2,0-1.6l0-2.1c0-0.7-0.2-1.4-0.5-2.1c-0.4-0.7-0.8-1-1.2-1c-0.1,0-0.4,0.1-0.6,0.2
		c-0.3,0.1-0.5,0.2-0.7,0.2c-0.3,0-0.6-0.1-1-0.4c-0.3-0.3-0.5-0.6-0.5-0.9c0-0.6,0.2-1.1,0.6-1.5c0.4-0.4,0.9-0.6,1.3-0.8
		c0.4-0.2,0.9-0.3,1.5-0.3c0.5,0,0.9,0,1.2,0.1c0.3,0.1,0.7,0.3,1.2,0.6c0.3,0.1,0.6,0.5,0.9,1c0.4,0.5,0.6,1.2,0.9,2.1
		c0.8-1.4,1.7-2.4,2.9-3c1.1-0.6,2.6-0.9,4.4-0.9c0.7,0,1.4,0.2,2.2,0.7c0.8,0.4,1.5,1,2,1.5c0.5,0.6,1,1.5,1.3,2.4
		c0.4,1,0.5,1.8,0.5,2.6c0,0.4,0,1.2-0.1,2.2c-0.1,0.8-0.1,1.6-0.1,2.5c0,2.1,0.4,3.3,1.2,3.8C125.4,35.3,125.6,35.4,125.9,35.5z"/>
	<path class="st1" d="M149.1,38.2c-0.7,0.4-1.4,0.7-1.9,0.7c-1.1,0-2-0.1-2.6-0.4c-0.7-0.3-1.3-0.8-1.9-1.6
		c-0.7,0.7-1.8,1.2-3.1,1.5c-1.3,0.3-2.6,0.5-3.7,0.5c-1.8,0-3.3-0.5-4.5-1.5c-1.2-1-1.8-2.4-1.8-4.4c0-0.8,0.3-1.7,0.8-2.5
		c0.5-0.8,1.1-1.5,1.9-2c0.8-0.5,1.7-0.9,2.7-1.1c1-0.2,2.2-0.3,3.5-0.3c0.6,0,1.4,0.1,2.2,0.4c0.9,0.2,1.5,0.5,2,0.8v-0.7
		c0-1.6-0.4-2.7-1.2-3.3c-0.8-0.6-2-0.9-3.7-0.9c-0.5,0-1,0.1-1.4,0.2c-0.4,0.2-0.9,0.4-1.5,0.7c-0.5,0.3-1,0.4-1.5,0.4
		c-0.4,0-0.8-0.2-1.2-0.5c-0.4-0.3-0.6-0.7-0.6-1.1c0-1.2,0.8-2.1,2.3-2.7c1.5-0.6,3.1-0.9,4.8-0.9c0.8,0,1.8,0.2,2.8,0.5
		c1.1,0.3,2,0.8,2.7,1.4c0.9,0.7,1.6,1.6,2.1,2.7c0.5,1,0.7,2.2,0.7,3.4c0,0.4,0,1-0.1,1.7c-0.1,0.8-0.1,1.5-0.1,2.1l0,1.2
		c-0.1,0.6-0.1,1.2-0.1,1.5c0,0.4,0.1,0.7,0.4,0.9c0.2,0.3,0.6,0.4,0.9,0.4l1.2,0c0.3,0,0.6,0.1,0.8,0.4c0.2,0.3,0.3,0.5,0.3,0.9
		C150.1,37.2,149.8,37.7,149.1,38.2z M139,35c0.9-0.3,1.9-0.8,3.1-1.5c0.1-0.5,0.2-1.2,0.2-2c-1.6-0.8-3-1.2-4-1.2
		c-1,0-1.8,0-2.4,0.1c-0.6,0.1-1.2,0.3-1.7,0.8c-0.5,0.4-0.8,1.2-0.8,2.1c0,0.6,0.3,1,0.8,1.4c0.5,0.4,1.1,0.6,1.6,0.6
		C137.1,35.4,138.2,35.3,139,35z"/>
	<path class="st1" d="M169.8,25.9c0.4-1.1,1-2.2,1.6-3.1c0.7-0.9,1.8-1.7,3.2-2.3c1.5-0.6,2.8-0.9,3.9-0.9c1.2,0,2.4,0.2,3.6,0.5
		c1.2,0.3,2.1,0.8,2.5,1.5c1.1,1.5,1.6,3,1.6,4.5c0,0.8-0.2,1.5-0.5,2c-0.3,0.6-0.8,1.2-1.4,1.8c-0.5,0.5-1.3,0.9-2.4,1.1
		c-1.1,0.2-2.1,0.3-3.2,0.3c-0.7,0-1.5-0.1-2.5-0.2c-1-0.1-1.9-0.3-2.8-0.5c0.1,0.6,0.2,1.2,0.4,1.7c0.2,0.6,0.5,1,0.8,1.3
		c0.6,0.6,1.2,0.9,1.8,1.1c0.6,0.1,1.5,0.2,2.5,0.2c1.1,0,2.1-0.2,3-0.5c0.7-0.3,1.3-0.4,1.8-0.4c0.6,0,1,0.2,1.3,0.5
		c0.3,0.3,0.4,0.8,0.4,1.3c0,0.7-0.4,1.3-1.3,1.8c-0.9,0.5-1.8,0.8-2.9,1c-1.1,0.2-2,0.3-2.7,0.3c-1.4,0-2.7-0.2-4-0.8
		c-1.3-0.5-2.4-1.2-3.2-2.1c-0.7-0.8-1.3-1.8-1.7-3c-0.4-1.2-0.6-2.4-0.6-3.7C169.2,28.2,169.4,27.1,169.8,25.9z M176.9,23.7
		c-0.6,0.3-1.2,0.6-1.6,1c-0.5,0.6-0.9,1-1.1,1.3c-0.2,0.3-0.3,0.8-0.4,1.4c0.7,0.2,2.3,0.4,4.6,0.4c1.3,0,2.2-0.2,2.9-0.6
		c0.7-0.4,1-0.9,1-1.5c0-0.6-0.4-1.2-1.2-1.7c-0.8-0.5-1.6-0.8-2.4-0.8C178.2,23.3,177.6,23.5,176.9,23.7z"/>
	<path class="st1" d="M64.5,34.4c0.3,0.6,0.8,0.9,1.3,0.9c0.3,0,0.6,0,0.8-0.1c0.3,0,0.5-0.1,0.8-0.1c0.3,0,0.6,0.1,0.8,0.4
		c0.2,0.3,0.3,0.6,0.3,1c0,0.7-0.3,1.3-1,1.7c-0.7,0.4-1.6,0.6-2.7,0.6c-0.8,0-1.6-0.2-2.4-0.7c-0.8-0.5-1.5-1.3-2-2.3
		c-0.5-1-0.8-2.4-0.8-3.9c0-3.4,0.1-6.2,0.2-8.5C60,20.6,60,17.1,60,12.9c0-1.3,0.1-2.3,0.2-2.8c0.2-0.4,0.5-0.7,0.9-1
		c0.4-0.2,0.8-0.3,1.3-0.3c0.4,0,0.8,0.1,1.2,0.2c0.3,0.1,0.6,0.4,0.7,0.7c0.1,0.4,0.2,0.7,0.2,1c0,0.3,0.1,0.8,0.1,1.4
		c0,1.2,0,2.4-0.1,3.5c-0.1,1.4-0.1,2.3-0.1,3c-0.2,5.2-0.4,9.6-0.4,13.1C64,32.9,64.1,33.8,64.5,34.4z"/>
	<g>
		<path class="st0" d="M155.2,21.3c0,0,0.8-7-11-8.3C144.2,13,145,22.4,155.2,21.3z"/>
		<path class="st0" d="M158.2,21.8c0,0,0.2-7,12.1-6.7C170.3,15.1,168.3,24.2,158.2,21.8z"/>
		<path class="st0" d="M43.2,20.6c0,0-1.6-6.8,10-9.6C53.2,11,53.5,20.4,43.2,20.6z"/>
	</g>
</g>
</svg>
