<?xml version="1.0" encoding="utf-8"?>
<!-- Generator: Adobe Illustrator 21.0.0, SVG Export Plug-In . SVG Version: 6.00 Build 0)  -->
<svg version="1.1" id="Layer_1" xmlns="http://www.w3.org/2000/svg" xmlns:xlink="http://www.w3.org/1999/xlink" x="0px" y="0px"
	 viewBox="0 0 222.6 194.7" style="enable-background:new 0 0 222.6 194.7;" xml:space="preserve">
<style type="text/css">
	.st0{fill:#9E957B;}
	.st1{fill:#FFB1AC;}
	.st2{fill:#79FFAE;}
	.st3{fill:#5BBF83;}
	.st4{fill:#2D2609;}
	.st5{fill:#88BAA6;}
	.st6{fill:#601E14;}
	.st7{fill:#FFFFFF;}
	.st8{fill:#1D1906;}
	.st9{fill:#F3F1EC;}
	.st10{fill:#AE9E9B;}
	.st11{fill:#B37E76;}
	.st12{fill:#CCA9A3;}
	.st13{fill:#865F59;}
	.st14{fill:#867B5A;}
	.st15{fill:#99E5C8;}
	.st16{fill:none;stroke:#FFD0CD;stroke-width:0.5;stroke-miterlimit:10;}
	.st17{fill:#FFD0CD;}
</style>
<g>
	<g>
		<g>
			<path class="st0" d="M108.3,98.4c0,0-14.1,24.9-32.8,38.7c0,0-1.4,2.3,0.7,2.4c0,0,13.4-7.4,28.1-25.2c0,0,2.5-2.2,1.9,1.1
				c0,0-26.4,30.3-16.2,50c0,0,1.7,0.6,2.7-0.9c0,0-7-11.5,8.9-33.4c0,0,20.6-22.1,16.3-36.4L108.3,98.4z"/>
		</g>
		<path class="st0" d="M115.4,110.5c0,0,16.2,6.5,18.9,17.4c0,0,2.4,2.1,3.1-0.5c0,0-13-23.1-20.6-27.6"/>
		<path class="st0" d="M113.4,114.8c0,0,3.3-2.9,6.8-1.9l-1.5-4.2l-7.6,0.3L113.4,114.8z"/>
	</g>
	<g>
		<path class="st6" d="M150.1,80.2c0,0,2.5-10.1-18.6-19.4c0,0-31-14.7-48.9,1.9c0,0-9.8,16-0.7,34c0,0,8.1,21.3,51.9,2.4
			C133.8,99.2,148.5,92.5,150.1,80.2z"/>
		<path class="st11" d="M149.2,75.1c0,0-31.3-25.9-68.7-7.8c0,0-0.4,0.6-0.8,2.5c0,0,7.8-5.9,36.3-3.1c0,0,31.3,7.2,33.9,10.3
			C149.8,77,149.7,76,149.2,75.1z"/>
		<path class="st11" d="M149.4,83.1c0,0-31.6,26.7-69.4,9.4c0,0-0.3-0.8-0.8-2.6c0,0,8.3,5.8,36.7,2.4c0,0,31.4-7.9,33.9-11
			C149.9,81.3,149.8,82.2,149.4,83.1z"/>
	</g>
	<path class="st4" d="M86.9,65.4c0,0,6.4-2.8,7.5-3L93,66.5C93,66.5,87.5,66.6,86.9,65.4z"/>
	<path class="st4" d="M131.2,67.3c0,0-7.4-4.7-8.6-4.7l-0.1,5.7C122.5,68.3,128.7,68.7,131.2,67.3z"/>
	<path class="st15" d="M93,62.9c0,0-2.2,2.7,0,3.6c0,0,21.7-0.8,29.6,1.8c0,0,2.9-3.6,0.3-5.6C122.8,62.7,108.7,57.9,93,62.9z"/>
</g>
</svg>
