<?xml version="1.0" encoding="utf-8"?>
<!-- Generator: Adobe Illustrator 21.0.0, SVG Export Plug-In . SVG Version: 6.00 Build 0)  -->
<svg version="1.1" id="Layer_1" xmlns="http://www.w3.org/2000/svg" xmlns:xlink="http://www.w3.org/1999/xlink" x="0px" y="0px"
	 viewBox="0 0 222.6 194.7" style="enable-background:new 0 0 222.6 194.7;" xml:space="preserve">
<style type="text/css">
	.st0{fill:#9E957B;}
	.st1{fill:#FFB1AC;}
	.st2{fill:#79FFAE;}
	.st3{fill:#5BBF83;}
	.st4{fill:#2D2609;}
	.st5{fill:#88BAA6;}
	.st6{fill:#601E14;}
	.st7{fill:#FFFFFF;}
	.st8{fill:#1D1906;}
	.st9{fill:#F3F1EC;}
	.st10{fill:#AE9E9B;}
	.st11{fill:#B37E76;}
	.st12{fill:#CCA9A3;}
	.st13{fill:#865F59;}
	.st14{fill:#867B5A;}
	.st15{fill:#99E5C8;}
	.st16{fill:none;stroke:#FFD0CD;stroke-width:0.5;stroke-miterlimit:10;}
	.st17{fill:#FFD0CD;}
</style>
<g>
	<g>
		<path class="st0" d="M109.5,97.5c0,0-17.1,30.1-39.7,46.8c0,0-1.7,2.8,0.9,2.9c0,0,16.3-8.9,34.1-30.5c0,0,3-2.7,2.3,1.3
			c0,0-32,36.7-19.6,60.6c0,0,2,0.8,3.3-1c0,0-8.4-13.9,10.8-40.4c0,0,24.9-26.8,19.7-44.1L109.5,97.5z"/>
	</g>
	<path class="st0" d="M118,112.2c0,0,19.6,7.9,22.9,21c0,0,2.9,2.5,3.7-0.7c0,0-15.7-28-24.9-33.5"/>
	<path class="st0" d="M115.7,117.3c0,0,4.1-3.5,8.3-2.3l-1.9-5.1l-9.2,0.3L115.7,117.3z"/>
	<path class="st0" d="M108,129.4c0,0,17.6,13.9,15.6,24.7c0,0,1.4,2.3,2.8-0.9c0,0-4.5-23.2-17.6-28.6"/>
	<path class="st0" d="M114.2,120.4c0,0-0.6,5.1,0.3,8.2l-5.2-2.4L114.2,120.4z"/>
	<path class="st0" d="M127.1,116.3c0,0-4.3,7.4-6.5,8.5c0,0-0.5,1.1,1,0.8c0,0,5-3.5,7.9-7.4"/>
	<path class="st0" d="M99.2,113.1c0,0-16.3-4.7-28.5,3.1c0,0-1.8,3,1,2.9c0,0,6.2-8.2,27.5-3.6"/>
	<path class="st0" d="M92.6,112c0,0,7.5-1,10.1-3.8l-2.6,5.9l-6-0.8L92.6,112z"/>
	<path class="st0" d="M95.3,146.6c0,0,9.6,4.3,12.7,10.8c0,0,0,1.5-2.2,0.5c0,0-9.1-10.3-12.3-8.6"/>
</g>
<g>
	<g>
		<path class="st6" d="M149.5,79.4c0,0,2.5-10.1-18.6-19.4c0,0-31-14.7-48.9,1.9c0,0-9.8,16-0.7,34c0,0,8.1,21.3,51.9,2.4
			C133.2,98.4,148,91.7,149.5,79.4z"/>
		<path class="st11" d="M148.7,74.3c0,0-31.3-25.9-68.7-7.8c0,0-0.4,0.6-0.8,2.5c0,0,7.8-5.9,36.3-3.1c0,0,31.3,7.2,33.9,10.3
			C149.3,76.1,149.2,75.2,148.7,74.3z"/>
		<path class="st11" d="M148.9,82.3c0,0-31.6,26.7-69.4,9.4c0,0-0.3-0.8-0.8-2.6c0,0,8.3,5.8,36.7,2.4c0,0,31.4-7.9,33.9-11
			C149.3,80.5,149.2,81.3,148.9,82.3z"/>
	</g>
	<path class="st4" d="M86.4,64.6c0,0,6.4-2.8,7.5-3l-1.5,4.1C92.4,65.6,87,65.7,86.4,64.6z"/>
	<path class="st4" d="M130.6,66.5c0,0-7.4-4.7-8.6-4.7l-0.1,5.7C122,67.5,128.2,67.9,130.6,66.5z"/>
	<path class="st15" d="M92.4,62c0,0-2.2,2.7,0,3.6c0,0,21.7-0.8,29.6,1.8c0,0,2.9-3.6,0.3-5.6C122.3,61.8,108.2,57,92.4,62z"/>
	<path class="st15" d="M107.7,63.8l0.1-25.9c0,0,1.6-1.6,2.4,0.1l0.4,26.3C110.6,64.2,109,64.4,107.7,63.8z"/>
	<path class="st15" d="M108.7,36.8c0,0-10.7-19.7-32.4-5.2c0,0,12.1,16.2,31,6.3C108,37.5,108,37.2,108.7,36.8z"/>
	<path class="st15" d="M109.4,36.7c0,0,10.7-19.7,32.4-5.2c0,0-12.1,16.2-31,6.3C110,37.4,110.1,37.2,109.4,36.7z"/>
	<path class="st4" d="M106.7,35.6c0,0-10-10.2-24.2-4.8C82.5,30.8,97.1,28.3,106.7,35.6z"/>
	<path class="st4" d="M135.3,31c0,0-14.7-2.5-24.2,4.8C111.1,35.8,121.1,25.6,135.3,31"/>
</g>
</svg>
