<?xml version="1.0" encoding="utf-8"?>
<!-- Generator: Adobe Illustrator 21.0.0, SVG Export Plug-In . SVG Version: 6.00 Build 0)  -->
<svg version="1.1" id="Layer_1" xmlns="http://www.w3.org/2000/svg" xmlns:xlink="http://www.w3.org/1999/xlink" x="0px" y="0px"
	 viewBox="0 0 222.6 194.7" style="enable-background:new 0 0 222.6 194.7;" xml:space="preserve">
<style type="text/css">
	.st0{fill:#9E957B;}
	.st1{fill:#FFB1AC;}
	.st2{fill:#79FFAE;}
	.st3{fill:#5BBF83;}
	.st4{fill:#2D2609;}
	.st5{fill:#88BAA6;}
	.st6{fill:#601E14;}
	.st7{fill:#FFFFFF;}
	.st8{fill:#1D1906;}
	.st9{fill:#F3F1EC;}
	.st10{fill:#AE9E9B;}
	.st11{fill:#B37E76;}
	.st12{fill:#CCA9A3;}
	.st13{fill:#865F59;}
	.st14{fill:#867B5A;}
	.st15{fill:#99E5C8;}
	.st16{fill:none;stroke:#FFD0CD;stroke-width:0.5;stroke-miterlimit:10;}
	.st17{fill:#FFD0CD;}
</style>
<path class="st1" d="M119.7,45.2c0,0-9.3-9.3-18.7,0.8l2.9,6.5l9.1,1.8L119.7,45.2z"/>
<path class="st15" d="M107.2,140.7l0.2-79.6c0,0,3.6-3.6,6,0.3l1,80.8C114.5,142.2,110.4,142.7,107.2,140.7z"/>
<g>
	<path class="st15" d="M105.9,103.2c0,0-16.6-30.5-50.2-8.1c0,0,18.7,25.1,48.1,9.8C104.9,104.3,104.8,103.9,105.9,103.2z"/>
	<path class="st4" d="M102.8,101.3c0,0-15.5-15.8-37.6-7.4C65.2,93.9,88,90,102.8,101.3z"/>
</g>
<g>
	<path class="st15" d="M115.5,102.8c0,0,16.6-30.5,50.2-8.1c0,0-18.7,25.1-48.1,9.8C116.6,103.9,116.7,103.5,115.5,102.8z"/>
	<path class="st4" d="M155.8,93.9c0,0-22.7-3.9-37.6,7.4C118.3,101.3,133.8,85.5,155.8,93.9"/>
</g>
<path class="st6" d="M44.4,152.4c0,0,66.9-45.2,132.8,0H44.4z"/>
<path class="st15" d="M107.2,60c0,0,3.8-3.8,6.9,0.2c0,0,6.6-2.4,6.8-7.4c0,0,1.1-6.5-0.7-9c0,0-7.2,7.8-10.5,7.8
	c0,0-7.5-3.5-9.8-7.5C100,44,94.8,57.2,107.2,60z"/>
<line class="st16" x1="103.8" y1="41.7" x2="105" y2="44.8"/>
<line class="st16" x1="117" y1="41.3" x2="115.7" y2="44.7"/>
<line class="st16" x1="111.6" y1="40.1" x2="111.6" y2="43.5"/>
<line class="st16" x1="107.1" y1="40.4" x2="107.9" y2="43.3"/>
<line class="st16" x1="102.7" y1="43.8" x2="103.9" y2="47"/>
<line class="st16" x1="113.8" y1="42.8" x2="113.1" y2="45.6"/>
<line class="st16" x1="109.8" y1="42.1" x2="109.8" y2="44.7"/>
<line class="st16" x1="106.3" y1="42.7" x2="107.2" y2="45.3"/>
<line class="st16" x1="117.2" y1="44.1" x2="115.9" y2="47"/>
<line class="st16" x1="105.7" y1="46" x2="106.9" y2="48.8"/>
<line class="st16" x1="108.6" y1="45.1" x2="109" y2="47.9"/>
<line class="st16" x1="111.1" y1="44.9" x2="110.9" y2="47.8"/>
<line class="st16" x1="114.4" y1="45.8" x2="113.7" y2="48.6"/>
<line class="st16" x1="107.9" y1="47.8" x2="108.8" y2="50.4"/>
<line class="st16" x1="112.3" y1="47.4" x2="111.2" y2="50"/>
<line class="st16" x1="109.9" y1="47.1" x2="109.9" y2="49.6"/>
</svg>
