<?xml version="1.0" encoding="utf-8"?>
<!-- Generator: Adobe Illustrator 21.0.0, SVG Export Plug-In . SVG Version: 6.00 Build 0)  -->
<svg version="1.1" id="Layer_1" xmlns="http://www.w3.org/2000/svg" xmlns:xlink="http://www.w3.org/1999/xlink" x="0px" y="0px"
	 viewBox="0 0 222.6 267.4" style="enable-background:new 0 0 222.6 267.4;" xml:space="preserve">
<style type="text/css">
	.st0{fill:#9E957B;}
	.st1{fill:#FFB1AC;}
	.st2{fill:#79FFAE;}
	.st3{fill:#5BBF83;}
	.st4{fill:#2D2609;}
	.st5{fill:#88BAA6;}
	.st6{fill:#601E14;}
	.st7{fill:#FFFFFF;}
	.st8{fill:#1D1906;}
	.st9{fill:#F3F1EC;}
	.st10{fill:#AE9E9B;}
	.st11{fill:#B37E76;}
	.st12{fill:#CCA9A3;}
	.st13{fill:#865F59;}
	.st14{fill:#867B5A;}
	.st15{fill:none;stroke:#FFD0CD;stroke-width:0.5;stroke-miterlimit:10;}
</style>
<path class="st2" d="M109.5,169.4l0.1-38c0,0,2.3-2.3,3.5,0.2l0.6,38.6C113.7,170.2,111.3,170.4,109.5,169.4z"/>
<path class="st2" d="M110.3,129.2c0,0-15.7-28.8-47.5-7.6c0,0,17.7,23.8,45.4,9.3C109.3,130.2,109.2,129.8,110.3,129.2z"/>
<path class="st2" d="M111.8,129.1c0,0,15.7-28.8,47.5-7.6c0,0-17.7,23.8-45.4,9.3C112.8,130.2,112.9,129.8,111.8,129.1z"/>
<path class="st4" d="M107.4,127.4c0,0-14.6-15-35.5-7C71.9,120.4,93.4,116.7,107.4,127.4z"/>
<path class="st4" d="M149.9,120.7c0,0-21.5-3.7-35.5,7C114.5,127.7,129.1,112.8,149.9,120.7"/>
<path class="st6" d="M44.3,183.2c0,0,68-46,135.1,0H44.3z"/>
</svg>
