<?xml version="1.0" encoding="utf-8"?>
<!-- Generator: Adobe Illustrator 21.0.0, SVG Export Plug-In . SVG Version: 6.00 Build 0)  -->
<svg version="1.1" id="Layer_1" xmlns="http://www.w3.org/2000/svg" xmlns:xlink="http://www.w3.org/1999/xlink" x="0px" y="0px"
	 viewBox="0 0 222.6 194.7" style="enable-background:new 0 0 222.6 194.7;" xml:space="preserve">
<style type="text/css">
	.st0{fill:#9E957B;}
	.st1{fill:#FFB1AC;}
	.st2{fill:#79FFAE;}
	.st3{fill:#5BBF83;}
	.st4{fill:#2D2609;}
	.st5{fill:#88BAA6;}
	.st6{fill:#601E14;}
	.st7{fill:#FFFFFF;}
	.st8{fill:#1D1906;}
	.st9{fill:#F3F1EC;}
	.st10{fill:#AE9E9B;}
	.st11{fill:#B37E76;}
	.st12{fill:#CCA9A3;}
	.st13{fill:#865F59;}
	.st14{fill:#867B5A;}
	.st15{fill:#99E5C8;}
	.st16{fill:none;stroke:#FFD0CD;stroke-width:0.5;stroke-miterlimit:10;}
	.st17{fill:#FFD0CD;}
</style>
<path class="st15" d="M109.6,140.7l0.2-78.9c0,0,3.9,1.3,6-0.1l1.1,80.6C116.9,142.2,112.7,142.7,109.6,140.7z"/>
<g>
	<path class="st15" d="M108.3,103.2c0,0-16.6-30.5-50.2-8.1c0,0,18.7,25.1,48.1,9.8C107.3,104.3,107.2,103.9,108.3,103.2z"/>
	<path class="st4" d="M105.2,101.3c0,0-15.5-15.8-37.6-7.4C67.6,93.9,90.4,90,105.2,101.3z"/>
</g>
<g>
	<path class="st15" d="M117.9,102.8c0,0,16.6-30.5,50.2-8.1c0,0-18.7,25.1-48.1,9.8C118.9,103.9,119.1,103.5,117.9,102.8z"/>
	<path class="st4" d="M158.2,93.9c0,0-22.7-3.9-37.6,7.4C120.7,101.3,136.2,85.5,158.2,93.9"/>
</g>
<path class="st6" d="M46.8,152.4c0,0,66.9-45.2,132.8,0H46.8z"/>
<circle class="st17" cx="112.7" cy="54.1" r="7.2"/>
<path class="st1" d="M106.9,48.2c0,0-10.7-14.6-31.4-13.8c0,0-2,0.4-1.5,2.5c0,0,12.3,14.2,30.9,14.6C105,51.5,105,50.2,106.9,48.2z
	"/>
<path class="st1" d="M104.8,53.4c0,0-17.6-4.1-32.7,10.1c0,0-1.3,1.6,0.5,2.9c0,0,18.6,2.7,32.9-9.2
	C105.5,57.2,104.6,56.1,104.8,53.4z"/>
<path class="st1" d="M111.4,46.1c0,0,4.2-16.9-9.8-32.1c0,0-1.6-1.3-2.9,0.5c0,0-2.8,18.6,8.9,33C107.7,47.4,108.5,46.4,111.4,46.1z
	"/>
<path class="st1" d="M118.5,48.4c0,0,10.7-14.6,31.4-13.8c0,0,2,0.4,1.5,2.5c0,0-12.3,14.2-30.9,14.6
	C120.5,51.7,120.4,50.4,118.5,48.4z"/>
<path class="st1" d="M120.7,53.6c0,0,17.6-4.1,32.7,10.1c0,0,1.3,1.6-0.5,2.9c0,0-18.6,2.7-32.9-9.2C120,57.4,120.9,56.3,120.7,53.6
	z"/>
<path class="st1" d="M114.1,46.2c0,0-4.2-16.9,9.8-32.1c0,0,1.6-1.3,2.9,0.5c0,0,2.8,18.6-8.9,33C117.8,47.6,117,46.6,114.1,46.2z"
	/>
<path class="st1" d="M109.3,61.7c0,0,1.8,17.2-13.6,31c0,0-1.7,1.1-2.8-0.8c0,0,0.1-19.9,13.2-33C106,58.8,106.4,59.9,109.3,61.7z"
	/>
<path class="st1" d="M116.6,61.4c0,0-1.8,17.2,13.6,31c0,0,1.7,1.1,2.8-0.8c0,0-0.1-19.9-13.2-33C119.8,58.6,119.4,59.6,116.6,61.4z
	"/>
</svg>
