<?xml version="1.0" encoding="utf-8"?>
<!-- Generator: Adobe Illustrator 21.0.0, SVG Export Plug-In . SVG Version: 6.00 Build 0)  -->
<svg version="1.1" id="Layer_1" xmlns="http://www.w3.org/2000/svg" xmlns:xlink="http://www.w3.org/1999/xlink" x="0px" y="0px"
	 viewBox="0 0 222.6 267.4" style="enable-background:new 0 0 222.6 267.4;" xml:space="preserve">
<style type="text/css">
	.st0{fill:#9E957B;}
	.st1{fill:#FFB1AC;}
	.st2{fill:#79FFAE;}
	.st3{fill:#5BBF83;}
	.st4{fill:#2D2609;}
	.st5{fill:#88BAA6;}
	.st6{fill:#601E14;}
	.st7{fill:#FFFFFF;}
	.st8{fill:#1D1906;}
	.st9{fill:#F3F1EC;}
	.st10{fill:#AE9E9B;}
	.st11{fill:#B37E76;}
	.st12{fill:#CCA9A3;}
	.st13{fill:#865F59;}
	.st14{fill:#867B5A;}
	.st15{fill:none;stroke:#FFD0CD;stroke-width:0.5;stroke-miterlimit:10;}
</style>
<path class="st1" d="M119.7,76c0,0-9.3-9.3-18.7,0.8l2.9,6.5L113,85L119.7,76z"/>
<path class="st2" d="M107.2,171.4l0.2-79.6c0,0,3.6-3.6,6,0.3l1,80.8C114.5,172.9,110.4,173.5,107.2,171.4z"/>
<g>
	<path class="st2" d="M105.9,133.9c0,0-16.6-30.5-50.2-8.1c0,0,18.7,25.1,48.1,9.8C104.9,135,104.8,134.6,105.9,133.9z"/>
	<path class="st4" d="M102.8,132c0,0-15.5-15.8-37.6-7.4C65.2,124.6,88,120.7,102.8,132z"/>
</g>
<g>
	<path class="st2" d="M115.5,133.5c0,0,16.6-30.5,50.2-8.1c0,0-18.7,25.1-48.1,9.8C116.6,134.6,116.7,134.2,115.5,133.5z"/>
	<path class="st4" d="M155.8,124.6c0,0-22.7-3.9-37.6,7.4C118.3,132,133.8,116.2,155.8,124.6"/>
</g>
<path class="st6" d="M44.4,183.1c0,0,66.9-45.2,132.8,0H44.4z"/>
<path class="st2" d="M107.2,90.7c0,0,3.8-3.8,6.9,0.2c0,0,6.6-2.4,6.8-7.4c0,0,1.1-6.5-0.7-9c0,0-7.2,7.8-10.5,7.8
	c0,0-7.5-3.5-9.8-7.5C100,74.7,94.8,87.9,107.2,90.7z"/>
<line class="st15" x1="103.8" y1="72.4" x2="105" y2="75.5"/>
<line class="st15" x1="117" y1="72" x2="115.7" y2="75.4"/>
<line class="st15" x1="111.6" y1="70.8" x2="111.6" y2="74.2"/>
<line class="st15" x1="107.1" y1="71.1" x2="107.9" y2="74.1"/>
<line class="st15" x1="102.7" y1="74.5" x2="103.9" y2="77.7"/>
<line class="st15" x1="113.8" y1="73.5" x2="113.1" y2="76.3"/>
<line class="st15" x1="109.8" y1="72.8" x2="109.8" y2="75.4"/>
<line class="st15" x1="106.3" y1="73.4" x2="107.2" y2="76"/>
<line class="st15" x1="117.2" y1="74.9" x2="115.9" y2="77.7"/>
<line class="st15" x1="105.7" y1="76.7" x2="106.9" y2="79.5"/>
<line class="st15" x1="108.6" y1="75.8" x2="109" y2="78.6"/>
<line class="st15" x1="111.1" y1="75.6" x2="110.9" y2="78.5"/>
<line class="st15" x1="114.4" y1="76.5" x2="113.7" y2="79.3"/>
<line class="st15" x1="107.9" y1="78.5" x2="108.8" y2="81.1"/>
<line class="st15" x1="112.3" y1="78.1" x2="111.2" y2="80.7"/>
<line class="st15" x1="109.9" y1="77.8" x2="109.9" y2="80.4"/>
</svg>
