<?xml version="1.0" encoding="utf-8"?>
<!-- Generator: Adobe Illustrator 21.0.0, SVG Export Plug-In . SVG Version: 6.00 Build 0)  -->
<svg version="1.1" id="Layer_1" xmlns="http://www.w3.org/2000/svg" xmlns:xlink="http://www.w3.org/1999/xlink" x="0px" y="0px"
	 viewBox="0 0 222.6 267.4" style="enable-background:new 0 0 222.6 267.4;" xml:space="preserve">
<style type="text/css">
	.st0{fill:#9E957B;}
	.st1{fill:#FFB1AC;}
	.st2{fill:#79FFAE;}
	.st3{fill:#5BBF83;}
	.st4{fill:#2D2609;}
	.st5{fill:#88BAA6;}
	.st6{fill:#601E14;}
	.st7{fill:#FFFFFF;}
	.st8{fill:#1D1906;}
	.st9{fill:#F3F1EC;}
	.st10{fill:#AE9E9B;}
	.st11{fill:#B37E76;}
	.st12{fill:#CCA9A3;}
	.st13{fill:#865F59;}
	.st14{fill:#867B5A;}
	.st15{fill:none;stroke:#FFD0CD;stroke-width:0.5;stroke-miterlimit:10;}
</style>
<g>
	<path class="st6" d="M148.4,151.9c0,0,2.5-10.1-18.6-19.4c0,0-31-14.7-48.9,1.9c0,0-9.8,16-0.7,34c0,0,8.1,21.3,51.9,2.4
		C132.1,170.9,146.9,164.3,148.4,151.9z"/>
	<path class="st11" d="M147.6,146.8c0,0-31.3-25.9-68.7-7.8c0,0-0.4,0.6-0.8,2.5c0,0,7.8-5.9,36.3-3.1c0,0,31.3,7.2,33.9,10.3
		C148.2,148.7,148.1,147.7,147.6,146.8z"/>
	<path class="st11" d="M147.8,154.8c0,0-31.6,26.7-69.4,9.4c0,0-0.3-0.8-0.8-2.6c0,0,8.3,5.8,36.7,2.4c0,0,31.4-7.9,33.9-11
		C148.2,153,148.1,153.9,147.8,154.8z"/>
</g>
</svg>
